HIERARCHY
ROOT Hips
{
	OFFSET 0.00000 0.00000 0.00000
	CHANNELS 6 Xposition Yposition Zposition Zrotation Yrotation Xrotation 
	JOINT LHipJoint
	{
		OFFSET 0 0 0
		CHANNELS 3 Zrotation Yrotation Xrotation
		JOINT LeftHip
		{
			OFFSET 3.13874 -1.57224 1.49786
			CHANNELS 3 Zrotation Yrotation Xrotation
			JOINT LeftKnee
			{
				OFFSET 2.10955 -5.79594 0.00000
				CHANNELS 3 Zrotation Yrotation Xrotation
				JOINT LeftAnkle
				{
					OFFSET 2.41843 -6.64458 0.00000
					CHANNELS 3 Zrotation Yrotation Xrotation
					JOINT LeftToe
					{
						OFFSET 0.04713 -0.12948 1.66229
						CHANNELS 3 Zrotation Yrotation Xrotation
						End Site
						{
							OFFSET 0.00000 -0.00000 0.85167
						}
					}
				}
			}
		}
	}
	JOINT RHipJoint
	{
		OFFSET 0 0 0
		CHANNELS 3 Zrotation Yrotation Xrotation
		JOINT RightHip
		{
			OFFSET -3.13988 -1.57224 1.49786
			CHANNELS 3 Zrotation Yrotation Xrotation
			JOINT RightKnee
			{
				OFFSET -2.15006 -5.90725 0.00000
				CHANNELS 3 Zrotation Yrotation Xrotation
				JOINT RightAnkle
				{
					OFFSET -2.34496 -6.44273 0.00000
					CHANNELS 3 Zrotation Yrotation Xrotation
					JOINT RightToe
					{
						OFFSET -0.08699 -0.23900 1.55223
						CHANNELS 3 Zrotation Yrotation Xrotation
						End Site
						{
							OFFSET -0.00000 -0.00000 0.80281
						}
					}
				}
			}
		}
	}
	JOINT lowerback
	{
		OFFSET 0 0 0
		CHANNELS 3 Zrotation Yrotation Xrotation
		JOINT Chest
		{
			OFFSET 0.01292 1.96517 -0.16495
			CHANNELS 3 Zrotation Yrotation Xrotation
			JOINT Chest2
			{
				OFFSET 0.02122 1.88666 0.19706
				CHANNELS 3 Zrotation Yrotation Xrotation
				JOINT lowerneck
				{
					OFFSET 0 0 0
					CHANNELS 3 Zrotation Yrotation Xrotation
					JOINT Neck
					{
						OFFSET -0.01683 1.81591 0.07903
						CHANNELS 3 Zrotation Yrotation Xrotation
						JOINT Head
						{
							OFFSET 0.00815 1.74013 -0.47700
							CHANNELS 3 Zrotation Yrotation Xrotation
							End Site
							{
								OFFSET -0.00204 1.83225 -0.16933
							}
						}
					}
				}
				JOINT LeftCollar
				{
					OFFSET 0 0 0
					CHANNELS 3 Zrotation Yrotation Xrotation
					JOINT LeftShoulder
					{
						OFFSET 3.38482 1.41533 0.19802
CHANNELS 3 Zrotation Xrotation Yrotation
						JOINT LeftElbow
						{
OFFSET 0 -4.327120 0.000000
CHANNELS 3 Zrotation Xrotation Yrotation
							JOINT LeftWrist
							{
OFFSET 0 -3.285870 -0.000000
CHANNELS 3 Zrotation Xrotation Yrotation
								JOINT lhand
								{
									OFFSET 0 0 0
CHANNELS 3 Zrotation Xrotation Yrotation
									JOINT LFingers
									{
OFFSET 0 -0.433160 -0.000000
CHANNELS 3 Zrotation Xrotation Yrotation
										End Site
										{
OFFSET 0 -0.349220 -0.000000
										}
									}
								}
								JOINT LThumb
								{
OFFSET 0 0.000000 0.000000
CHANNELS 3 Zrotation Xrotation Yrotation
									End Site
									{
OFFSET 0 -0.354560 0.354560
									}
								}
							}
						}
					}
				}
				JOINT RightCollar
				{
					OFFSET 0 0 0
					CHANNELS 3 Zrotation Yrotation Xrotation
					JOINT RightShoulder
					{
						OFFSET -3.09725 1.62858 -0.14144
CHANNELS 3 Zrotation Xrotation Yrotation
						JOINT RightElbow
						{
OFFSET 0 -4.291040 0.000000
CHANNELS 3 Zrotation Xrotation Yrotation
							JOINT RightWrist
							{
OFFSET 0 -3.227200 -0.000000
CHANNELS 3 Zrotation Xrotation Yrotation
								JOINT rhand
								{
									OFFSET 0 0 0
CHANNELS 3 Zrotation Xrotation Yrotation
									JOINT RFingers
									{
OFFSET 0 -0.543620 -0.000000
CHANNELS 3 Zrotation Xrotation Yrotation
										End Site
										{
OFFSET 0 -0.438280 -0.000000
										}
									}
								}
								JOINT RThumb
								{
OFFSET 0 0.000000 0.000000
CHANNELS 3 Zrotation Xrotation Yrotation
									End Site
									{
OFFSET 0 -0.444970 0.444970
									}
								}
							}
						}
					}
				}
			}
		}
	}
}
MOTION
Frames: 10
Frame Time: 0.008333333333333333
6.961958 15.924005 5.976539 -170.278995 -94.470272 184.249658 0.000000 0.000000 0.000000 -29.465017 -22.136580 -18.957625 0.762562 5.576762 15.561183 0.084950 2.096995 -6.695330 11.110085 -17.988528 -63.138577 0.000000 0.000000 0.000000 22.607525 12.339589 9.045823 -0.144554 -2.440418 6.724986 -3.479635 -8.650507 -38.956878 -0.404783 4.072925 -11.283447 3.574734 0.135641 8.254043 4.473904 1.012269 -9.907147 2.864342 0.279908 -15.772644 -7.669645 -2.853336 -18.430338 -14.367458 2.328487 37.817646 -5.007496 -2.916649 17.412649 0.000000 0.000000 0.000000 0.985516 15.563173 -13.019788 25.144912 -36.351699 8.375607 26.026320 23.179231 -29.061303 0.000000 0.000000 0.000000 -7.125000 0.000000 0.000000 -5.781205 61.619593 2.351866 0.000000 0.000000 0.000000 -26.620401 -7.005258 38.771162 -117.056846 -57.044470 -83.199371 -18.890226 -1.557337 25.640529 0.000000 0.000000 0.000000 7.125000 0.000000 0.000000 11.899361 56.483467 -3.379715
6.979605 15.926191 5.955307 -172.109472 -94.766294 186.114721 0.000000 0.000000 0.000000 -29.250015 -22.384469 -19.031164 0.760960 5.571032 15.544647 0.079273 2.176792 -6.585255 11.106354 -17.986742 -63.126519 0.000000 0.000000 0.000000 22.951543 12.403857 9.378882 -0.121581 -2.242009 6.175239 -3.554338 -8.837707 -39.413067 -0.359987 3.853943 -10.666104 3.601675 0.144996 8.260789 4.503745 1.034027 -9.913760 2.879054 0.289348 -15.786883 -7.553927 -2.733074 -18.473803 -14.333624 2.481994 37.743128 -4.972427 -2.823214 17.389769 0.000000 0.000000 0.000000 0.926003 15.564950 -13.085247 25.125387 -36.331846 8.364037 26.436612 22.846098 -28.592708 0.000000 0.000000 0.000000 -7.125000 0.000000 0.000000 -5.049256 61.238250 2.001751 0.000000 0.000000 0.000000 -26.325059 -6.648881 38.721976 -117.070496 -57.041200 -83.210825 -18.474794 -1.715642 24.951569 0.000000 0.000000 0.000000 7.125000 0.000000 0.000000 11.994790 55.707738 -3.185470
6.998974 15.927085 5.931978 -173.238454 -95.033256 187.318202 0.000000 0.000000 0.000000 -29.048824 -22.614182 -19.157941 0.759299 5.564987 15.527278 0.074888 2.234221 -6.494792 11.112356 -17.989637 -63.145931 0.000000 0.000000 0.000000 23.249071 12.488829 9.649804 -0.102169 -2.048481 5.640164 -3.602996 -9.152945 -39.805912 -0.344278 3.768971 -10.427707 3.529091 0.172326 8.246315 4.536141 1.063912 -9.919166 2.950190 0.314379 -15.787139 -7.402544 -2.588290 -18.586871 -14.291606 2.672456 37.648280 -4.932879 -2.707123 17.375848 0.000000 0.000000 0.000000 0.867638 15.535917 -13.191078 25.116745 -36.323076 8.358929 27.040353 22.652230 -28.308547 0.000000 0.000000 0.000000 -7.125000 0.000000 0.000000 -4.203627 61.093083 1.653819 0.000000 0.000000 0.000000 -26.061332 -6.320701 38.661994 -116.849893 -57.092200 -83.025641 -18.183524 -1.933903 24.147148 0.000000 0.000000 0.000000 7.125000 0.000000 0.000000 11.920716 54.845463 -2.915017
7.018344 15.927979 5.908649 -174.367436 -95.300219 188.521683 0.000000 0.000000 0.000000 -28.847634 -22.843895 -19.284717 0.757639 5.558942 15.509909 0.070503 2.291649 -6.404329 11.118359 -17.992532 -63.165343 0.000000 0.000000 0.000000 23.546599 12.573801 9.920725 -0.082757 -1.854954 5.105090 -3.651655 -9.468183 -40.198757 -0.328570 3.683999 -10.189309 3.456508 0.199657 8.231841 4.568538 1.093797 -9.924573 3.021326 0.339411 -15.787394 -7.251162 -2.443507 -18.699940 -14.249589 2.862919 37.553432 -4.893331 -2.591032 17.361928 0.000000 0.000000 0.000000 0.809273 15.506883 -13.296910 25.108103 -36.314306 8.353820 27.644094 22.458362 -28.024386 0.000000 0.000000 0.000000 -7.125000 0.000000 0.000000 -3.357997 60.947916 1.305887 0.000000 0.000000 0.000000 -25.797605 -5.992522 38.602011 -116.629291 -57.143200 -82.840457 -17.892253 -2.152164 23.342728 0.000000 0.000000 0.000000 7.125000 0.000000 0.000000 11.846643 53.983189 -2.644564
7.039252 15.929538 5.880581 -175.419098 -95.493354 189.635374 0.000000 0.000000 0.000000 -28.598888 -22.961953 -19.439677 0.753651 5.544666 15.468845 0.064663 2.327336 -6.241285 11.110685 -17.988817 -63.140484 0.000000 0.000000 0.000000 23.866326 12.707575 10.160179 -0.068873 -1.681047 4.625344 -3.704762 -9.649734 -40.538268 -0.302094 3.528983 -9.755620 3.389619 0.296034 8.281051 4.524239 1.216631 -9.932307 2.982678 0.401980 -15.832004 -7.015727 -2.304293 -18.843021 -14.159101 3.008985 37.490426 -4.857440 -2.473319 17.365508 0.000000 0.000000 0.000000 0.900724 15.393797 -13.523043 25.048040 -36.252952 8.318325 27.937396 22.325642 -27.868508 0.000000 0.000000 0.000000 -7.125000 0.000000 0.000000 -2.943898 60.856955 1.139363 0.000000 0.000000 0.000000 -25.482914 -5.573139 38.468867 -116.172741 -57.244915 -82.456406 -17.922688 -2.350431 22.749894 0.000000 0.000000 0.000000 7.125000 0.000000 0.000000 11.568589 53.392777 -2.418673
7.060197 15.931113 5.852399 -176.468898 -95.684710 190.746902 0.000000 0.000000 0.000000 -28.348997 -23.077320 -19.595317 0.749607 5.530192 15.427211 0.058789 2.362500 -6.076493 11.102682 -17.984943 -63.114559 0.000000 0.000000 0.000000 24.186587 12.842525 10.398874 -0.055123 -1.507613 4.146932 -3.757975 -9.828063 -40.876494 -0.275360 3.372280 -9.317224 3.322868 0.394075 8.331795 4.478092 1.341704 -9.940098 2.941384 0.465453 -15.877682 -6.778266 -2.165214 -18.986826 -14.067446 3.153982 37.428187 -4.821638 -2.355568 17.369509 0.000000 0.000000 0.000000 0.995785 15.278685 -13.752074 24.986738 -36.190330 8.282097 28.223218 22.194396 -27.715721 0.000000 0.000000 0.000000 -7.125000 0.000000 0.000000 -2.540198 60.767301 0.977210 0.000000 0.000000 0.000000 -25.166995 -5.151559 38.333960 -115.710505 -57.347851 -82.067563 -17.960874 -2.548216 22.162160 0.000000 0.000000 0.000000 7.125000 0.000000 0.000000 11.285620 52.808917 -2.193855
7.082130 15.935867 5.824511 -177.720100 -95.940654 191.980232 0.000000 0.000000 0.000000 -28.075599 -23.229282 -19.651537 0.744681 5.512406 15.376014 0.052967 2.417617 -5.923401 11.094331 -17.980909 -63.087538 0.000000 0.000000 0.000000 24.583162 12.949748 10.728842 -0.043376 -1.331053 3.660426 -3.844204 -9.889051 -41.297578 -0.232305 3.076197 -8.492798 3.526247 0.468103 8.134500 4.302075 1.439746 -9.739247 2.595209 0.482689 -15.494192 -6.499937 -2.083644 -19.261595 -13.846322 3.173169 37.301200 -4.749963 -2.256515 17.353077 0.000000 0.000000 0.000000 1.333651 14.757109 -14.023337 24.849256 -36.048830 8.201315 28.422174 22.163717 -27.681531 0.000000 0.000000 0.000000 -7.125000 0.000000 0.000000 -2.289633 60.781526 0.880633 0.000000 0.000000 0.000000 -24.666235 -5.009164 38.111627 -114.914861 -57.513933 -81.396142 -18.163921 -2.692631 21.702933 0.000000 0.000000 0.000000 7.125000 0.000000 0.000000 10.901816 52.381183 -2.004110
7.104650 15.942508 5.796797 -179.090885 -96.234947 193.285883 0.000000 0.000000 0.000000 -27.788246 -23.402971 -19.648727 0.739232 5.492653 15.319139 0.047178 2.484581 -5.777254 11.085774 -17.976780 -63.059867 0.000000 0.000000 0.000000 25.025049 13.040510 11.113002 -0.032818 -1.152639 3.169115 -3.950035 -9.880366 -41.767860 -0.179559 2.697358 -7.439167 3.890016 0.527872 7.789930 4.048948 1.521737 -9.414516 2.068010 0.472472 -14.855884 -6.197343 -2.036220 -19.614125 -13.548325 3.117656 37.135770 -4.656988 -2.168563 17.324512 0.000000 0.000000 0.000000 1.815682 13.994195 -14.319673 24.666541 -35.860496 8.094078 28.569555 22.192750 -27.717759 0.000000 0.000000 0.000000 -7.125000 0.000000 0.000000 -2.129992 60.857430 0.822992 0.000000 0.000000 0.000000 -24.055725 -5.032536 37.837384 -113.921255 -57.717507 -80.556941 -18.464855 -2.805359 21.320007 0.000000 0.000000 0.000000 7.125000 0.000000 0.000000 10.458142 52.046150 -1.835188
7.128000 15.949090 5.770328 -180.260878 -96.574531 194.393114 0.000000 0.000000 0.000000 -27.520497 -23.625460 -19.651975 0.736379 5.482312 15.289349 0.041969 2.546970 -5.645984 11.083002 -17.975448 -63.050912 0.000000 0.000000 0.000000 25.455485 13.120058 11.510568 -0.022995 -0.964895 2.652343 -4.045353 -9.989454 -42.249259 -0.138940 2.401278 -6.615996 4.164223 0.565536 7.591036 3.870129 1.580272 -9.194198 1.686296 0.463393 -14.444182 -5.962477 -1.961320 -19.860238 -13.294659 3.122476 36.997708 -4.562685 -2.076072 17.292485 0.000000 0.000000 0.000000 2.139841 13.433423 -14.552631 24.494222 -35.682320 7.993160 28.783076 22.293910 -27.763126 0.000000 0.000000 0.000000 -7.125000 0.000000 0.000000 -1.894230 60.960252 0.735766 0.000000 0.000000 0.000000 -23.605149 -4.887025 37.721369 -112.833121 -57.930434 -79.636108 -18.940089 -2.917482 20.854406 0.000000 0.000000 0.000000 7.125000 0.000000 0.000000 9.821226 51.653321 -1.631395
7.153500 15.955518 5.747084 -180.910511 -97.031488 194.986127 0.000000 0.000000 0.000000 -27.303555 -23.974414 -19.670919 0.740253 5.496360 15.329748 0.038265 2.597501 -5.553264 11.095220 -17.981365 -63.090460 0.000000 0.000000 0.000000 25.856248 13.170547 11.942876 -0.015077 -0.752977 2.069589 -4.113424 -10.403755 -42.759472 -0.129744 2.319669 -6.390072 4.206325 0.545911 7.769663 3.883879 1.578016 -9.244475 1.681613 0.457263 -14.619745 -5.903133 -1.815217 -19.830566 -13.155878 3.283649 36.930573 -4.464942 -1.971816 17.251490 0.000000 0.000000 0.000000 2.054870 13.396514 -14.621340 24.348842 -35.530469 7.908614 29.168002 22.581987 -27.832176 0.000000 0.000000 0.000000 -7.125000 0.000000 0.000000 -1.461199 61.132835 0.571867 0.000000 0.000000 0.000000 -23.569048 -4.303845 38.015407 -111.500011 -58.167596 -78.503721 -19.867029 -3.028039 20.174548 0.000000 0.000000 0.000000 7.125000 0.000000 0.000000 8.683518 51.110711 -1.337230
